<svg id="Capa_1" data-name="Capa 1" xmlns="http://www.w3.org/2000/svg" viewBox="0 0 66.1 58.8"><path id="leaf-solid" d="M64.1,1.8a2,2,0,0,0-2.4-1,2,2,0,0,0-.9.9,19.7,19.7,0,0,1-17.2,10H34.4a22.1,22.1,0,0,0-22,22.1,19.5,19.5,0,0,0,.2,2.3c7.3-5.2,17.9-9.7,32.9-9.7a1.8,1.8,0,0,1,1.8,1.8,1.8,1.8,0,0,1-1.8,1.9C16.6,30.1,4.4,47.8,1.7,54.4a3.6,3.6,0,0,0,2,4.8,3.7,3.7,0,0,0,4.8-2,29.6,29.6,0,0,1,8.2-10.4,22.2,22.2,0,0,0,20.1,8.9c18-1.3,30.7-17.5,30.7-37.3A43.2,43.2,0,0,0,64.1,1.8Z" transform="translate(-1.4 -0.7)" style="fill:#8b8b8b"/></svg>