<svg id="Capa_1" data-name="Capa 1" xmlns="http://www.w3.org/2000/svg" viewBox="0 0 68.5 51.4"><path id="car-battery-solid" d="M64.2,8.6H59.9V2.1A2.1,2.1,0,0,0,57.8,0H44.9a2.2,2.2,0,0,0-2.1,2.1h0V8.6H25.7V2.1A2.2,2.2,0,0,0,23.5,0H10.7A2.1,2.1,0,0,0,8.6,2.1h0V8.6H4.3A4.2,4.2,0,0,0,0,12.8V47.1a4.3,4.3,0,0,0,4.3,4.3H64.2a4.3,4.3,0,0,0,4.3-4.3V12.8A4.2,4.2,0,0,0,64.2,8.6ZM25.7,26.7a1.1,1.1,0,0,1-1.1,1.1H9.6a1,1,0,0,1-1-1.1h0V24.6a1,1,0,0,1,1-1.1h15a1.1,1.1,0,0,1,1.1,1.1h0Zm34.2,0a1.1,1.1,0,0,1-1,1.1H53.5v5.4a1,1,0,0,1-1.1,1H50.3a1,1,0,0,1-1.1-1h0V27.8H43.9a1.1,1.1,0,0,1-1.1-1.1h0V24.6a1.1,1.1,0,0,1,1.1-1.1h5.3V18.2a1.1,1.1,0,0,1,1.1-1.1h2.1a1.1,1.1,0,0,1,1.1,1.1h0v5.3h5.4a1.1,1.1,0,0,1,1,1.1h0Z" style="fill:#8b8b8b"/></svg>