<svg id="Capa_1" data-name="Capa 1" xmlns="http://www.w3.org/2000/svg" viewBox="0 0 78.7 27.7"><g id="Grupo_232" data-name="Grupo 232"><g id="SoLar" style="isolation:isolate"><text transform="translate(27.6 22.7)" style="isolation:isolate;font-size:26.69168472290039px;fill:#259896;font-family:BebasNeueRegular, Bebas Neue">SoL</text><text transform="translate(56.9 22.7)" style="isolation:isolate;font-size:26.69168472290039px;fill:#e95d0c;font-family:BebasNeueRegular, Bebas Neue">ar</text></g><g id="Grupo_233" data-name="Grupo 233"><g id="Grupo_232-2" data-name="Grupo 232-2"><path id="Trazado_2149" data-name="Trazado 2149" d="M19.5,16.3a.7.7,0,0,1-.7-.7.6.6,0,0,1,.1-.4,8.2,8.2,0,1,0-14,0,.7.7,0,0,1-.2.9.8.8,0,0,1-1-.2h0A9.6,9.6,0,0,1,20.1,6a9.5,9.5,0,0,1-.1,9.9A.7.7,0,0,1,19.5,16.3Z" transform="translate(-0.8 -0.3)" style="fill:#259896"/></g><path id="Trazado_2150" data-name="Trazado 2150" d="M11.4,23.3c.4.3.7.3,1,0s4.7-6,6-7.5l.7-.4c.3-.1.4-.6.6-.2s.4.5.1.8a37.9,37.9,0,0,0-3,4c-1.1,1.3-2.6,3.6-3.6,4.5a1.8,1.8,0,0,1-1.3.5,2.1,2.1,0,0,1-1.2-.4C9.1,23.3,6,18.7,4.4,17s-.5-.9-.2-1.2a.7.7,0,0,1,1-.1l.2.2" transform="translate(-0.8 -0.3)" style="fill:#259896"/><path id="Trazado_2151" data-name="Trazado 2151" d="M11.9,9.2a1.7,1.7,0,0,1,1.2.5l9.4,7.5c.5.4.6.9.3,1.2s-.7.3-1.2-.1l-9.2-7.4a.7.7,0,0,0-1,0l-9,7.2a1.5,1.5,0,0,1-.6.5c-.3.1-.7.2-.9-.2a.8.8,0,0,1,.2-1l6.3-5.1,3.2-2.6A2.4,2.4,0,0,1,11.9,9.2Z" transform="translate(-0.8 -0.3)" style="fill:#e95d0c"/><path id="Trazado_2152" data-name="Trazado 2152" d="M2.2,5.8h0Z" transform="translate(-0.8 -0.3)" style="fill:#eee"/><path id="Trazado_2153" data-name="Trazado 2153" d="M20.9,4.5Z" transform="translate(-0.8 -0.3)" style="fill:#eee"/><path id="Trazado_2154" data-name="Trazado 2154" d="M4.5,14.3A8.1,8.1,0,1,1,19.3,7.5a8.9,8.9,0,0,1,.8,3.2,8.7,8.7,0,0,1-.6,3.2c-.1.4-.2.4-.5.2L13.6,9.7c-1.2-1.1-2.2-1.1-3.5,0Z" transform="translate(-0.8 -0.3)" style="fill:#fdfdfd"/></g><g id="Grupo_234" data-name="Grupo 234" style="opacity:0.30000001192092896"><path id="Trazado_2155" data-name="Trazado 2155" d="M18.6,27.1c0,.5-2.9.8-6.5.8s-6.6-.3-6.6-.8,3-.8,6.6-.8S18.6,26.7,18.6,27.1Z" transform="translate(-0.8 -0.3)" style="fill:#95989b;fill-opacity:0"/><path id="Trazado_2156" data-name="Trazado 2156" d="M18.6,27.1c0,.5-2.9.8-6.5.8s-6.5-.3-6.5-.8,2.9-.8,6.5-.8S18.6,26.7,18.6,27.1Z" transform="translate(-0.8 -0.3)" style="fill:#949699;opacity:0.009999999776482582;isolation:isolate"/><path id="Trazado_2157" data-name="Trazado 2157" d="M18.5,27.1c0,.5-2.9.8-6.4.8s-6.5-.3-6.5-.8,2.9-.8,6.5-.8S18.5,26.7,18.5,27.1Z" transform="translate(-0.8 -0.3)" style="fill:#929496;opacity:0.019999999552965164;isolation:isolate"/><path id="Trazado_2158" data-name="Trazado 2158" d="M18.5,27.1c0,.5-2.9.8-6.4.8s-6.4-.3-6.4-.8,2.8-.8,6.4-.8S18.5,26.7,18.5,27.1Z" transform="translate(-0.8 -0.3)" style="fill:#909294;opacity:0.029999999329447746;isolation:isolate"/><path id="Trazado_2159" data-name="Trazado 2159" d="M18.4,27.1c0,.5-2.8.8-6.3.8s-6.4-.3-6.4-.8,2.9-.7,6.4-.7S18.4,26.7,18.4,27.1Z" transform="translate(-0.8 -0.3)" style="fill:#8e9093;opacity:0.03999999910593033;isolation:isolate"/><path id="Trazado_2160" data-name="Trazado 2160" d="M18.3,27.1c0,.5-2.8.8-6.2.8s-6.3-.3-6.3-.8,2.8-.7,6.3-.7S18.3,26.7,18.3,27.1Z" transform="translate(-0.8 -0.3)" style="fill:#8d8e91;opacity:0.05000000074505806;isolation:isolate"/><path id="Trazado_2161" data-name="Trazado 2161" d="M18.3,27.1c0,.5-2.8.8-6.2.8s-6.2-.3-6.2-.8,2.7-.7,6.2-.7S18.3,26.7,18.3,27.1Z" transform="translate(-0.8 -0.3)" style="fill:#8b8c8f;opacity:0.05900000035762787;isolation:isolate"/><path id="Trazado_2162" data-name="Trazado 2162" d="M18.2,27.1c0,.5-2.7.8-6.1.8s-6.2-.3-6.2-.8,2.8-.7,6.2-.7S18.2,26.7,18.2,27.1Z" transform="translate(-0.8 -0.3)" style="fill:#898b8e;opacity:0.0689999982714653;isolation:isolate"/><path id="Trazado_2163" data-name="Trazado 2163" d="M18.2,27.1c0,.5-2.8.8-6.1.8S6,27.6,6,27.1s2.7-.7,6.1-.7S18.2,26.7,18.2,27.1Z" transform="translate(-0.8 -0.3)" style="fill:#88898c;opacity:0.07900000363588333;isolation:isolate"/><path id="Trazado_2164" data-name="Trazado 2164" d="M18.1,27.1c0,.4-2.7.8-6,.8S6,27.5,6,27.1s2.7-.7,6.1-.7S18.1,26.7,18.1,27.1Z" transform="translate(-0.8 -0.3)" style="fill:#86878a;opacity:0.08900000154972076;isolation:isolate"/><path id="Trazado_2165" data-name="Trazado 2165" d="M18.1,27.1c0,.4-2.7.8-6,.8s-6-.4-6-.8,2.7-.7,6-.7S18.1,26.7,18.1,27.1Z" transform="translate(-0.8 -0.3)" style="fill:#848588;opacity:0.0989999994635582;isolation:isolate"/><path id="Trazado_2166" data-name="Trazado 2166" d="M18,27.1c0,.4-2.7.8-5.9.8s-6-.4-6-.8,2.7-.7,6-.7S18,26.7,18,27.1Z" transform="translate(-0.8 -0.3)" style="fill:#838386;opacity:0.10899999737739563;isolation:isolate"/><path id="Trazado_2167" data-name="Trazado 2167" d="M17.9,27.1c0,.4-2.6.8-5.8.8s-5.9-.4-5.9-.8,2.6-.7,5.9-.7S17.9,26.7,17.9,27.1Z" transform="translate(-0.8 -0.3)" style="fill:#818285;opacity:0.11900000274181366;isolation:isolate"/><path id="Trazado_2168" data-name="Trazado 2168" d="M17.9,27.1c0,.4-2.6.8-5.8.8s-5.9-.4-5.9-.8,2.7-.7,5.9-.7S17.9,26.7,17.9,27.1Z" transform="translate(-0.8 -0.3)" style="fill:#808083;opacity:0.1289999932050705;isolation:isolate"/><path id="Trazado_2169" data-name="Trazado 2169" d="M17.8,27.1c0,.4-2.5.8-5.7.8s-5.8-.4-5.8-.8,2.6-.7,5.8-.7S17.8,26.7,17.8,27.1Z" transform="translate(-0.8 -0.3)" style="fill:#8b8b8b;opacity:0.13899999856948853;isolation:isolate"/><path id="Trazado_2170" data-name="Trazado 2170" d="M17.8,27.1c0,.4-2.6.7-5.7.7s-5.7-.3-5.7-.7,2.5-.7,5.7-.7S17.8,26.7,17.8,27.1Z" transform="translate(-0.8 -0.3)" style="fill:#7c7d7f;opacity:0.14900000393390656;isolation:isolate"/><path id="Trazado_2171" data-name="Trazado 2171" d="M17.7,27.1c0,.4-2.5.7-5.6.7s-5.7-.3-5.7-.7,2.5-.7,5.7-.7S17.7,26.7,17.7,27.1Z" transform="translate(-0.8 -0.3)" style="fill:#7b7b7e;opacity:0.15800000727176666;isolation:isolate"/><path id="Trazado_2172" data-name="Trazado 2172" d="M17.7,27.1c0,.4-2.5.7-5.6.7s-5.6-.3-5.6-.7,2.5-.7,5.6-.7S17.7,26.8,17.7,27.1Z" transform="translate(-0.8 -0.3)" style="fill:#79797c;opacity:0.1679999977350235;isolation:isolate"/><path id="Trazado_2173" data-name="Trazado 2173" d="M17.6,27.1c0,.4-2.5.7-5.5.7s-5.6-.3-5.6-.7,2.5-.7,5.6-.7S17.6,26.8,17.6,27.1Z" transform="translate(-0.8 -0.3)" style="fill:#78787a;opacity:0.17800000309944153;isolation:isolate"/><path id="Trazado_2174" data-name="Trazado 2174" d="M17.6,27.1c0,.4-2.5.7-5.5.7s-5.5-.3-5.5-.7,2.4-.6,5.5-.6S17.6,26.8,17.6,27.1Z" transform="translate(-0.8 -0.3)" style="fill:#767679;opacity:0.18799999356269836;isolation:isolate"/><path id="Trazado_2175" data-name="Trazado 2175" d="M17.5,27.1c0,.4-2.4.7-5.4.7s-5.5-.3-5.5-.7,2.5-.6,5.5-.6S17.5,26.8,17.5,27.1Z" transform="translate(-0.8 -0.3)" style="fill:#757477;opacity:0.1979999989271164;isolation:isolate"/><path id="Trazado_2176" data-name="Trazado 2176" d="M17.4,27.1c0,.4-2.4.7-5.3.7s-5.4-.3-5.4-.7,2.4-.6,5.4-.6S17.4,26.8,17.4,27.1Z" transform="translate(-0.8 -0.3)" style="fill:#737375;opacity:0.20800000429153442;isolation:isolate"/><path id="Trazado_2177" data-name="Trazado 2177" d="M17.4,27.1c0,.4-2.4.7-5.3.7s-5.4-.3-5.4-.7,2.4-.6,5.4-.6S17.4,26.8,17.4,27.1Z" transform="translate(-0.8 -0.3)" style="fill:#727174;opacity:0.21799999475479126;isolation:isolate"/><path id="Trazado_2178" data-name="Trazado 2178" d="M17.3,27.1c0,.4-2.3.7-5.2.7s-5.3-.3-5.3-.7,2.4-.6,5.3-.6S17.3,26.8,17.3,27.1Z" transform="translate(-0.8 -0.3)" style="fill:#707072;opacity:0.2280000001192093;isolation:isolate"/><path id="Trazado_2179" data-name="Trazado 2179" d="M17.3,27.1c0,.4-2.4.7-5.2.7s-5.2-.3-5.2-.7,2.3-.6,5.2-.6S17.3,26.8,17.3,27.1Z" transform="translate(-0.8 -0.3)" style="fill:#6f6f70;opacity:0.23800000548362732;isolation:isolate"/><path id="Trazado_2180" data-name="Trazado 2180" d="M17.2,27.1c0,.4-2.3.7-5.1.7s-5.2-.3-5.2-.7,2.3-.6,5.2-.6S17.2,26.8,17.2,27.1Z" transform="translate(-0.8 -0.3)" style="fill:#6e6c6f;opacity:0.24799999594688416;isolation:isolate"/><path id="Trazado_2181" data-name="Trazado 2181" d="M17.2,27.1c0,.4-2.3.7-5.1.7S7,27.5,7,27.1s2.2-.6,5.1-.6S17.2,26.8,17.2,27.1Z" transform="translate(-0.8 -0.3)" style="fill:#6d6c6d;opacity:0.25699999928474426;isolation:isolate"/><path id="Trazado_2182" data-name="Trazado 2182" d="M17.1,27.1c0,.4-2.3.7-5,.7S7,27.5,7,27.1s2.3-.6,5.1-.6S17.1,26.8,17.1,27.1Z" transform="translate(-0.8 -0.3)" style="fill:#6c6a6d;opacity:0.2669999897480011;isolation:isolate"/><path id="Trazado_2183" data-name="Trazado 2183" d="M17,27.1c0,.4-2.2.7-4.9.7s-5-.3-5-.7,2.2-.6,5-.6S17,26.8,17,27.1Z" transform="translate(-0.8 -0.3)" style="fill:#6a696a;opacity:0.2770000100135803;isolation:isolate"/><path id="Trazado_2184" data-name="Trazado 2184" d="M17,27.1c0,.4-2.2.6-4.9.6s-5-.2-5-.6,2.2-.6,5-.6S17,26.8,17,27.1Z" transform="translate(-0.8 -0.3)" style="fill:#686769;opacity:0.28700000047683716;isolation:isolate"/><path id="Trazado_2185" data-name="Trazado 2185" d="M16.9,27.1c0,.4-2.1.6-4.8.6s-4.9-.2-4.9-.6,2.2-.6,4.9-.6S16.9,26.8,16.9,27.1Z" transform="translate(-0.8 -0.3)" style="fill:#676667;opacity:0.296999990940094;isolation:isolate"/><path id="Trazado_2186" data-name="Trazado 2186" d="M16.9,27.1c0,.4-2.2.6-4.8.6s-4.8-.2-4.8-.6,2.1-.6,4.8-.6S16.9,26.8,16.9,27.1Z" transform="translate(-0.8 -0.3)" style="fill:#656466;opacity:0.3070000112056732;isolation:isolate"/><path id="Trazado_2187" data-name="Trazado 2187" d="M16.8,27.1c0,.4-2.1.6-4.7.6s-4.8-.2-4.8-.6,2.1-.6,4.8-.6S16.8,26.8,16.8,27.1Z" transform="translate(-0.8 -0.3)" style="fill:#646365;opacity:0.31700000166893005;isolation:isolate"/><path id="Trazado_2188" data-name="Trazado 2188" d="M16.8,27.1c0,.4-2.1.6-4.7.6s-4.7-.2-4.7-.6,2.1-.5,4.7-.5S16.8,26.8,16.8,27.1Z" transform="translate(-0.8 -0.3)" style="fill:#626164;opacity:0.3269999921321869;isolation:isolate"/><path id="Trazado_2189" data-name="Trazado 2189" d="M16.7,27.1c0,.4-2.1.6-4.6.6s-4.7-.2-4.7-.6,2.1-.5,4.7-.5S16.7,26.8,16.7,27.1Z" transform="translate(-0.8 -0.3)" style="fill:#616062;opacity:0.3370000123977661;isolation:isolate"/><path id="Trazado_2190" data-name="Trazado 2190" d="M16.7,27.1c0,.3-2.1.6-4.6.6s-4.6-.3-4.6-.6,2-.5,4.6-.5S16.7,26.8,16.7,27.1Z" transform="translate(-0.8 -0.3)" style="fill:#605e61;opacity:0.34700000286102295;isolation:isolate"/><path id="Trazado_2191" data-name="Trazado 2191" d="M16.6,27.1c0,.3-2,.6-4.5.6s-4.6-.3-4.6-.6,2.1-.5,4.6-.5S16.6,26.8,16.6,27.1Z" transform="translate(-0.8 -0.3)" style="fill:#5e5d5f;opacity:0.35600000619888306;isolation:isolate"/><path id="Trazado_2192" data-name="Trazado 2192" d="M16.5,27.1c0,.3-2,.6-4.4.6s-4.5-.3-4.5-.6,2-.5,4.5-.5S16.5,26.8,16.5,27.1Z" transform="translate(-0.8 -0.3)" style="fill:#5e5b5d;opacity:0.3659999966621399;isolation:isolate"/><path id="Trazado_2193" data-name="Trazado 2193" d="M16.5,27.1c0,.3-2,.6-4.4.6s-4.5-.3-4.5-.6,2-.5,4.5-.5S16.5,26.8,16.5,27.1Z" transform="translate(-0.8 -0.3)" style="fill:#5d5a5c;opacity:0.37599998712539673;isolation:isolate"/><path id="Trazado_2194" data-name="Trazado 2194" d="M16.4,27.1c0,.3-1.9.6-4.3.6s-4.4-.3-4.4-.6,2-.5,4.4-.5S16.4,26.8,16.4,27.1Z" transform="translate(-0.8 -0.3)" style="fill:#5b595a;opacity:0.38600000739097595;isolation:isolate"/><path id="Trazado_2195" data-name="Trazado 2195" d="M16.4,27.1c0,.3-2,.6-4.3.6s-4.3-.3-4.3-.6,1.9-.5,4.3-.5S16.4,26.8,16.4,27.1Z" transform="translate(-0.8 -0.3)" style="fill:#595759;opacity:0.3959999978542328;isolation:isolate"/><path id="Trazado_2196" data-name="Trazado 2196" d="M16.3,27.1c0,.3-1.9.6-4.2.6s-4.3-.3-4.3-.6,1.9-.5,4.3-.5S16.3,26.8,16.3,27.1Z" transform="translate(-0.8 -0.3)" style="fill:#585657;opacity:0.4059999883174896;isolation:isolate"/><path id="Trazado_2197" data-name="Trazado 2197" d="M16.3,27.1c0,.3-1.9.6-4.2.6s-4.2-.3-4.2-.6,1.9-.5,4.2-.5S16.3,26.8,16.3,27.1Z" transform="translate(-0.8 -0.3)" style="fill:#575556;opacity:0.41600000858306885;isolation:isolate"/><path id="Trazado_2198" data-name="Trazado 2198" d="M16.2,27.1c0,.3-1.8.5-4.1.5s-4.2-.2-4.2-.5,1.9-.5,4.2-.5S16.2,26.9,16.2,27.1Z" transform="translate(-0.8 -0.3)" style="fill:#565355;opacity:0.4259999990463257;isolation:isolate"/><path id="Trazado_2199" data-name="Trazado 2199" d="M16.1,27.1c0,.3-1.8.5-4,.5S8,27.4,8,27.1s1.8-.5,4.1-.5S16.1,26.9,16.1,27.1Z" transform="translate(-0.8 -0.3)" style="fill:#555253;opacity:0.4359999895095825;isolation:isolate"/><path id="Trazado_2200" data-name="Trazado 2200" d="M16.1,27.1c0,.3-1.8.5-4,.5S8,27.4,8,27.1s1.8-.5,4.1-.5S16.1,26.9,16.1,27.1Z" transform="translate(-0.8 -0.3)" style="fill:#545152;opacity:0.44600000977516174;isolation:isolate"/><path id="Trazado_2201" data-name="Trazado 2201" d="M16,27.1c0,.3-1.7.5-3.9.5s-4-.2-4-.5,1.8-.5,4-.5S16,26.9,16,27.1Z" transform="translate(-0.8 -0.3)" style="fill:#514e51;opacity:0.45500001311302185;isolation:isolate"/><path id="Trazado_2202" data-name="Trazado 2202" d="M16,27.1c0,.3-1.8.5-3.9.5s-3.9-.2-3.9-.5,1.7-.4,3.9-.4S16,26.9,16,27.1Z" transform="translate(-0.8 -0.3)" style="fill:#504d4f;opacity:0.4650000035762787;isolation:isolate"/><path id="Trazado_2203" data-name="Trazado 2203" d="M15.9,27.1c0,.3-1.7.5-3.8.5s-3.9-.2-3.9-.5,1.7-.4,3.9-.4S15.9,26.9,15.9,27.1Z" transform="translate(-0.8 -0.3)" style="fill:#4f4c4e;opacity:0.4749999940395355;isolation:isolate"/><path id="Trazado_2204" data-name="Trazado 2204" d="M15.9,27.1c0,.3-1.7.5-3.8.5s-3.8-.2-3.8-.5,1.7-.4,3.8-.4S15.9,26.9,15.9,27.1Z" transform="translate(-0.8 -0.3)" style="fill:#4e4b4d;opacity:0.48500001430511475;isolation:isolate"/><path id="Trazado_2205" data-name="Trazado 2205" d="M15.8,27.1c0,.3-1.7.5-3.7.5s-3.8-.2-3.8-.5,1.7-.4,3.8-.4S15.8,26.9,15.8,27.1Z" transform="translate(-0.8 -0.3)" style="fill:#4d494b;opacity:0.4950000047683716;isolation:isolate"/><path id="Trazado_2206" data-name="Trazado 2206" d="M15.8,27.1c0,.3-1.7.5-3.7.5s-3.7-.2-3.7-.5,1.6-.4,3.7-.4S15.8,26.9,15.8,27.1Z" transform="translate(-0.8 -0.3)" style="fill:#4c484a;opacity:0.5049999952316284;isolation:isolate"/><path id="Trazado_2207" data-name="Trazado 2207" d="M15.7,27.1c0,.3-1.6.5-3.6.5s-3.7-.2-3.7-.5,1.7-.4,3.7-.4S15.7,26.9,15.7,27.1Z" transform="translate(-0.8 -0.3)" style="fill:#4a4749;opacity:0.5149999856948853;isolation:isolate"/><path id="Trazado_2208" data-name="Trazado 2208" d="M15.6,27.1c0,.3-1.6.5-3.5.5s-3.6-.2-3.6-.5,1.6-.4,3.6-.4S15.6,26.9,15.6,27.1Z" transform="translate(-0.8 -0.3)" style="fill:#494648;opacity:0.5249999761581421;isolation:isolate"/><path id="Trazado_2209" data-name="Trazado 2209" d="M15.6,27.1c0,.3-1.6.5-3.5.5s-3.6-.2-3.6-.5,1.6-.4,3.6-.4S15.6,26.9,15.6,27.1Z" transform="translate(-0.8 -0.3)" style="fill:#474446;opacity:0.5350000262260437;isolation:isolate"/><path id="Trazado_2210" data-name="Trazado 2210" d="M15.5,27.1c0,.3-1.5.5-3.4.5s-3.5-.2-3.5-.5,1.6-.4,3.5-.4S15.5,26.9,15.5,27.1Z" transform="translate(-0.8 -0.3)" style="fill:#464345;opacity:0.5450000166893005;isolation:isolate"/><path id="Trazado_2211" data-name="Trazado 2211" d="M15.5,27.1c0,.3-1.6.5-3.4.5s-3.4-.2-3.4-.5,1.5-.4,3.4-.4S15.5,26.9,15.5,27.1Z" transform="translate(-0.8 -0.3)" style="fill:#454244;opacity:0.5540000200271606;isolation:isolate"/><path id="Trazado_2212" data-name="Trazado 2212" d="M15.4,27.1c0,.3-1.5.5-3.3.5s-3.4-.2-3.4-.5,1.5-.4,3.4-.4S15.4,26.9,15.4,27.1Z" transform="translate(-0.8 -0.3)" style="fill:#444143;opacity:0.5640000104904175;isolation:isolate"/><path id="Trazado_2213" data-name="Trazado 2213" d="M15.4,27.1c0,.3-1.5.4-3.3.4s-3.3-.1-3.3-.4,1.4-.4,3.3-.4S15.4,26.9,15.4,27.1Z" transform="translate(-0.8 -0.3)" style="fill:#434042;opacity:0.5740000009536743;isolation:isolate"/><path id="Trazado_2214" data-name="Trazado 2214" d="M15.3,27.1c0,.3-1.4.4-3.2.4s-3.3-.1-3.3-.4,1.5-.4,3.3-.4S15.3,26.9,15.3,27.1Z" transform="translate(-0.8 -0.3)" style="fill:#413e40;opacity:0.5839999914169312;isolation:isolate"/><path id="Trazado_2215" data-name="Trazado 2215" d="M15.2,27.1c0,.3-1.4.4-3.1.4s-3.2-.1-3.2-.4,1.4-.4,3.2-.4S15.2,26.9,15.2,27.1Z" transform="translate(-0.8 -0.3)" style="fill:#403d3f;opacity:0.593999981880188;isolation:isolate"/><path id="Trazado_2216" data-name="Trazado 2216" d="M15.2,27.1c0,.2-1.4.4-3.1.4s-3.2-.2-3.2-.4,1.4-.4,3.2-.4S15.2,26.9,15.2,27.1Z" transform="translate(-0.8 -0.3)" style="fill:#3f3c3e;opacity:0.6039999723434448;isolation:isolate"/><path id="Trazado_2217" data-name="Trazado 2217" d="M15.1,27.1c0,.2-1.3.4-3,.4S9,27.3,9,27.1s1.4-.3,3.1-.3S15.1,26.9,15.1,27.1Z" transform="translate(-0.8 -0.3)" style="fill:#3e3b3d;opacity:0.6140000224113464;isolation:isolate"/><path id="Trazado_2218" data-name="Trazado 2218" d="M15.1,27.1c0,.2-1.4.4-3,.4s-3-.2-3-.4,1.3-.3,3-.3S15.1,26.9,15.1,27.1Z" transform="translate(-0.8 -0.3)" style="fill:#3d3a3c;opacity:0.6240000128746033;isolation:isolate"/><path id="Trazado_2219" data-name="Trazado 2219" d="M15,27.1c0,.2-1.3.4-2.9.4s-3-.2-3-.4,1.3-.3,3-.3S15,26.9,15,27.1Z" transform="translate(-0.8 -0.3)" style="fill:#3c393b;opacity:0.6340000033378601;isolation:isolate"/><path id="Trazado_2220" data-name="Trazado 2220" d="M15,27.1c0,.2-1.3.4-2.9.4s-2.9-.2-2.9-.4,1.3-.3,2.9-.3S15,26.9,15,27.1Z" transform="translate(-0.8 -0.3)" style="fill:#3b383a;opacity:0.6439999938011169;isolation:isolate"/><path id="Trazado_2221" data-name="Trazado 2221" d="M14.9,27.1c0,.2-1.3.4-2.8.4s-2.9-.2-2.9-.4,1.3-.3,2.9-.3S14.9,26.9,14.9,27.1Z" transform="translate(-0.8 -0.3)" style="fill:#3a3739;opacity:0.652999997138977;isolation:isolate"/><path id="Trazado_2222" data-name="Trazado 2222" d="M14.9,27.1c0,.2-1.3.4-2.8.4s-2.8-.2-2.8-.4,1.2-.3,2.8-.3S14.9,26.9,14.9,27.1Z" transform="translate(-0.8 -0.3)" style="fill:#393638;opacity:0.6629999876022339;isolation:isolate"/><path id="Trazado_2223" data-name="Trazado 2223" d="M14.8,27.1c0,.2-1.2.4-2.7.4s-2.8-.2-2.8-.4,1.3-.3,2.8-.3S14.8,26.9,14.8,27.1Z" transform="translate(-0.8 -0.3)" style="fill:#383537;opacity:0.6729999780654907;isolation:isolate"/><path id="Trazado_2224" data-name="Trazado 2224" d="M14.7,27.1c0,.2-1.2.4-2.6.4s-2.7-.2-2.7-.4a7.8,7.8,0,0,1,2.7-.3A7.5,7.5,0,0,1,14.7,27.1Z" transform="translate(-0.8 -0.3)" style="fill:#363335;opacity:0.6830000281333923;isolation:isolate"/><path id="Trazado_2225" data-name="Trazado 2225" d="M14.7,27.1c0,.2-1.2.4-2.6.4s-2.7-.2-2.7-.4a7.8,7.8,0,0,1,2.7-.3A7.5,7.5,0,0,1,14.7,27.1Z" transform="translate(-0.8 -0.3)" style="fill:#363334;opacity:0.6930000185966492;isolation:isolate"/><path id="Trazado_2226" data-name="Trazado 2226" d="M14.6,27.1c0,.2-1.1.4-2.5.4s-2.6-.2-2.6-.4a7.5,7.5,0,0,1,2.6-.3A6.7,6.7,0,0,1,14.6,27.1Z" transform="translate(-0.8 -0.3)" style="fill:#353233;opacity:0.703000009059906;isolation:isolate"/><path id="Trazado_2227" data-name="Trazado 2227" d="M14.6,27.1c0,.2-1.1.3-2.5.3s-2.5-.1-2.5-.3a6.7,6.7,0,0,1,2.5-.3A6.7,6.7,0,0,1,14.6,27.1Z" transform="translate(-0.8 -0.3)" style="fill:#343234;opacity:0.7129999995231628;isolation:isolate"/><path id="Trazado_2228" data-name="Trazado 2228" d="M14.5,27.1c0,.2-1.1.3-2.4.3s-2.5-.1-2.5-.3a6.7,6.7,0,0,1,2.5-.3A6.4,6.4,0,0,1,14.5,27.1Z" transform="translate(-0.8 -0.3)" style="fill:#333133;opacity:0.7229999899864197;isolation:isolate"/><path id="Trazado_2229" data-name="Trazado 2229" d="M14.5,27.1c0,.2-1.1.3-2.4.3s-2.4-.1-2.4-.3a5.9,5.9,0,0,1,2.4-.3A6.4,6.4,0,0,1,14.5,27.1Z" transform="translate(-0.8 -0.3)" style="fill:#323031;opacity:0.7329999804496765;isolation:isolate"/><path id="Trazado_2230" data-name="Trazado 2230" d="M14.4,27.1c0,.2-1,.3-2.3.3s-2.4-.1-2.4-.3a6.4,6.4,0,0,1,2.4-.3A5.6,5.6,0,0,1,14.4,27.1Z" transform="translate(-0.8 -0.3)" style="fill:#312e30;opacity:0.7429999709129333;isolation:isolate"/><path id="Trazado_2231" data-name="Trazado 2231" d="M14.3,27.1c0,.2-1,.3-2.2.3s-2.3-.1-2.3-.3a7,7,0,0,1,2.3-.2A6.6,6.6,0,0,1,14.3,27.1Z" transform="translate(-0.8 -0.3)" style="fill:#302d2f;opacity:0.7519999742507935;isolation:isolate"/><path id="Trazado_2232" data-name="Trazado 2232" d="M14.3,27.1c0,.2-1,.3-2.2.3s-2.3-.1-2.3-.3a7,7,0,0,1,2.3-.2A6.6,6.6,0,0,1,14.3,27.1Z" transform="translate(-0.8 -0.3)" style="fill:#2f2c2e;opacity:0.7620000243186951;isolation:isolate"/><path id="Trazado_2233" data-name="Trazado 2233" d="M14.2,27.1c0,.2-.9.3-2.1.3s-2.2-.1-2.2-.3a6.6,6.6,0,0,1,2.2-.2A5.8,5.8,0,0,1,14.2,27.1Z" transform="translate(-0.8 -0.3)" style="fill:#2e2b2d;opacity:0.7720000147819519;isolation:isolate"/><path id="Trazado_2234" data-name="Trazado 2234" d="M14.2,27.1c0,.2-1,.3-2.1.3s-2.1-.1-2.1-.3a5.8,5.8,0,0,1,2.1-.2A6.2,6.2,0,0,1,14.2,27.1Z" transform="translate(-0.8 -0.3)" style="fill:#2d2a2c;opacity:0.7820000052452087;isolation:isolate"/><path id="Trazado_2235" data-name="Trazado 2235" d="M14.1,27.1a7.2,7.2,0,0,1-4.1,0A9.4,9.4,0,0,1,14.1,27.1Z" transform="translate(-0.8 -0.3)" style="fill:#2c292b;opacity:0.7919999957084656;isolation:isolate"/><path id="Trazado_2236" data-name="Trazado 2236" d="M14.1,27.1a6.8,6.8,0,0,1-4,0A9,9,0,0,1,14.1,27.1Z" transform="translate(-0.8 -0.3)" style="fill:#2b282a;opacity:0.8019999861717224;isolation:isolate"/><path id="Trazado_2237" data-name="Trazado 2237" d="M14,27.1a6.5,6.5,0,0,1-3.9,0A8.6,8.6,0,0,1,14,27.1Z" transform="translate(-0.8 -0.3)" style="fill:#2a2729;opacity:0.8119999766349792;isolation:isolate"/><path id="Trazado_2238" data-name="Trazado 2238" d="M14,27.1a8.1,8.1,0,0,1-3.8,0A8.1,8.1,0,0,1,14,27.1Z" transform="translate(-0.8 -0.3)" style="fill:#292628;opacity:0.8220000267028809;isolation:isolate"/><path id="Trazado_2239" data-name="Trazado 2239" d="M13.9,27.1a7.7,7.7,0,0,1-3.7,0A7.7,7.7,0,0,1,13.9,27.1Z" transform="translate(-0.8 -0.3)" style="fill:#282527;opacity:0.8320000171661377;isolation:isolate"/><path id="Trazado_2240" data-name="Trazado 2240" d="M13.8,27.1a6.9,6.9,0,0,1-3.5,0A6.9,6.9,0,0,1,13.8,27.1Z" transform="translate(-0.8 -0.3)" style="fill:#272526;opacity:0.8420000076293945;isolation:isolate"/><path id="Trazado_2241" data-name="Trazado 2241" d="M13.8,27.1a6.9,6.9,0,0,1-3.5,0A10.3,10.3,0,0,1,13.8,27.1Z" transform="translate(-0.8 -0.3)" style="fill:#272425;opacity:0.8510000109672546;isolation:isolate"/><path id="Trazado_2242" data-name="Trazado 2242" d="M13.7,27.1a6.2,6.2,0,0,1-3.3,0A9.1,9.1,0,0,1,13.7,27.1Z" transform="translate(-0.8 -0.3)" style="fill:#252324;opacity:0.8610000014305115;isolation:isolate"/><path id="Trazado_2243" data-name="Trazado 2243" d="M13.7,27.1a5.8,5.8,0,0,1-3.2,0A8.6,8.6,0,0,1,13.7,27.1Z" transform="translate(-0.8 -0.3)" style="fill:#242223;opacity:0.8709999918937683;isolation:isolate"/><path id="Trazado_2244" data-name="Trazado 2244" d="M13.6,27.1a5.5,5.5,0,0,1-3.1,0A8.1,8.1,0,0,1,13.6,27.1Z" transform="translate(-0.8 -0.3)" style="fill:#232022;opacity:0.8809999823570251;isolation:isolate"/><path id="Trazado_2245" data-name="Trazado 2245" d="M13.6,27.1a5.1,5.1,0,0,1-3,0A7.6,7.6,0,0,1,13.6,27.1Z" transform="translate(-0.8 -0.3)" style="fill:#221f21;opacity:0.890999972820282;isolation:isolate"/><path id="Trazado_2246" data-name="Trazado 2246" d="M13.5,27.1a4.8,4.8,0,0,1-2.9,0A7.1,7.1,0,0,1,13.5,27.1Z" transform="translate(-0.8 -0.3)" style="fill:#221f21;opacity:0.9010000228881836;isolation:isolate"/><path id="Trazado_2247" data-name="Trazado 2247" d="M13.5,27.1a4.5,4.5,0,0,1-2.8,0A6.6,6.6,0,0,1,13.5,27.1Z" transform="translate(-0.8 -0.3)" style="fill:#211f20;opacity:0.9110000133514404;isolation:isolate"/><path id="Trazado_2248" data-name="Trazado 2248" d="M13.4,27.1a4.2,4.2,0,0,1-2.7,0A6.1,6.1,0,0,1,13.4,27.1Z" transform="translate(-0.8 -0.3)" style="fill:#211e1f;opacity:0.9210000038146973;isolation:isolate"/><path id="Trazado_2249" data-name="Trazado 2249" d="M13.3,27.1a5.3,5.3,0,0,1-2.5,0A5.3,5.3,0,0,1,13.3,27.1Z" transform="translate(-0.8 -0.3)" style="fill:#211e1f;opacity:0.9309999942779541;isolation:isolate"/><path id="Trazado_2250" data-name="Trazado 2250" d="M13.3,27.1a4.9,4.9,0,0,1-2.4,0A4.9,4.9,0,0,1,13.3,27.1Z" transform="translate(-0.8 -0.3)" style="fill:#1f1d1e;opacity:0.9409999847412109;isolation:isolate"/><path id="Trazado_2251" data-name="Trazado 2251" d="M13.2,27.1a4.5,4.5,0,0,1-2.3,0A4.5,4.5,0,0,1,13.2,27.1Z" transform="translate(-0.8 -0.3)" style="fill:#1e1c1c;opacity:0.949999988079071;isolation:isolate"/><path id="Trazado_2252" data-name="Trazado 2252" d="M13.2,27.1a4.1,4.1,0,0,1-2.2,0A8.1,8.1,0,0,1,13.2,27.1Z" transform="translate(-0.8 -0.3)" style="fill:#1d1c1c;opacity:0.9599999785423279;isolation:isolate"/><path id="Trazado_2253" data-name="Trazado 2253" d="M13.1,27.1a3.8,3.8,0,0,1-2.1,0A7.4,7.4,0,0,1,13.1,27.1Z" transform="translate(-0.8 -0.3)" style="fill:#1d1a1b;opacity:0.9700000286102295;isolation:isolate"/><path id="Trazado_2254" data-name="Trazado 2254" d="M13.1,27.1a3.4,3.4,0,0,1-2,0A6.7,6.7,0,0,1,13.1,27.1Z" transform="translate(-0.8 -0.3)" style="fill:#1c191a;opacity:0.9800000190734863;isolation:isolate"/><path id="Trazado_2255" data-name="Trazado 2255" d="M13,27.1a3.1,3.1,0,0,1-1.9,0A6.1,6.1,0,0,1,13,27.1Z" transform="translate(-0.8 -0.3)" style="fill:#1b1819;opacity:0.9900000095367432;isolation:isolate"/><path id="Trazado_2256" data-name="Trazado 2256" d="M12.9,27.1a2.5,2.5,0,0,1-1.7,0A4.8,4.8,0,0,1,12.9,27.1Z" transform="translate(-0.8 -0.3)" style="fill:#1a1818"/></g></g></svg>